<svg xmlns="http://www.w3.org/2000/svg" viewBox="0 0 1000 750" width="1000" height="750" role="img" aria-label="STIHL AP 300 S — 281 Wh · système AP · 1,7 kg">
  <defs>
    <linearGradient id="bg" x1="0" y1="0" x2="0" y2="1">
      <stop offset="0%" stop-color="#FFFFFF"/><stop offset="100%" stop-color="#EFEFF2"/>
    </linearGradient>
    <linearGradient id="rule" x1="0" y1="0" x2="1" y2="0">
      <stop offset="0%" stop-color="#E1000F"/><stop offset="100%" stop-color="#E1000F" stop-opacity="0"/>
    </linearGradient>
    <linearGradient id="org" x1="0.1" y1="0" x2="0.6" y2="1">
      <stop offset="0%" stop-color="#FF9233"/><stop offset="45%" stop-color="#EE7203"/>
      <stop offset="100%" stop-color="#B9550A"/>
    </linearGradient>
    <linearGradient id="orgSoft" x1="0" y1="0" x2="0" y2="1">
      <stop offset="0%" stop-color="#FFA556"/><stop offset="100%" stop-color="#D96A05"/>
    </linearGradient>
    <linearGradient id="pale" x1="0.1" y1="0" x2="0.5" y2="1">
      <stop offset="0%" stop-color="#FDFDFD"/><stop offset="50%" stop-color="#DFE2E5"/>
      <stop offset="100%" stop-color="#AFB4B9"/>
    </linearGradient>
    <linearGradient id="dark" x1="0.1" y1="0" x2="0.5" y2="1">
      <stop offset="0%" stop-color="#4A4E53"/><stop offset="55%" stop-color="#2E3236"/>
      <stop offset="100%" stop-color="#1A1C1F"/>
    </linearGradient>
    <linearGradient id="steel" x1="0" y1="0" x2="0" y2="1">
      <stop offset="0%" stop-color="#EDEFF1"/><stop offset="40%" stop-color="#C2C7CC"/>
      <stop offset="100%" stop-color="#8D9399"/>
    </linearGradient>
    <linearGradient id="stone" x1="0" y1="0" x2="0.3" y2="1">
      <stop offset="0%" stop-color="#D8D2C6"/><stop offset="60%" stop-color="#B3AB9C"/>
      <stop offset="100%" stop-color="#8C8576"/>
    </linearGradient>
    <radialGradient id="shade" cx="0.5" cy="0.5" r="0.5">
      <stop offset="0%" stop-color="#0B0B0C" stop-opacity="0.22"/>
      <stop offset="100%" stop-color="#0B0B0C" stop-opacity="0"/>
    </radialGradient>
  </defs>

  <rect width="1000" height="750" fill="url(#bg)"/>
  <rect x="0" y="0" width="1000" height="6" fill="#E1000F"/>

  <!-- Cadrage : le taille-haie est le dessin le plus large (906 px), c'est lui
       qui fixe l'échelle maximale sans déborder de la tuile. -->
  <g transform="translate(35 52) scale(1.06)">
    <ellipse cx="400" cy="382" rx="200" ry="20" fill="url(#shade)"/>
    <path d="M232 152 h336 q30 0 30 30 v160 q0 30 -30 30 H232 q-30 0 -30 -30 V182 q0 -30 30 -30 z" fill="url(#pale)"/>
    <path d="M232 152 h336 q30 0 30 30 v26 H202 v-26 q0 -30 30 -30 z" fill="url(#steel)"/>
    <rect x="300" y="110" width="200" height="46" rx="12" fill="url(#dark)"/>
    <rect x="242" y="250" width="44" height="30" rx="6" fill="#EE7203"/>
    <rect x="300" y="250" width="44" height="30" rx="6" fill="#EE7203"/>
    <rect x="358" y="250" width="44" height="30" rx="6" fill="#EE7203"/>
    <rect x="416" y="250" width="44" height="30" rx="6" fill="#C9CDD1"/>
    <rect x="242" y="304" width="220" height="14" rx="7" fill="#00000018"/>
  </g>

  <rect x="80" y="576" width="420" height="3" fill="url(#rule)"/>

  <text x="80" y="552" font-family="Inter, Roboto, Helvetica, Arial, sans-serif" font-size="21" font-weight="700" letter-spacing="4.5" fill="#E1000F">STIHL</text>
  <text x="80" y="636" font-family="Inter, Roboto, Helvetica, Arial, sans-serif" font-size="54" font-weight="800" letter-spacing="-1" fill="#0B0B0C">AP 300 S</text>
  <text x="80" y="682" font-family="Inter, Roboto, Helvetica, Arial, sans-serif" font-size="23" font-weight="600" fill="#74777E">281 Wh · système AP · 1,7 kg</text>

  <text x="820" y="682" text-anchor="end" font-family="Inter, Roboto, Helvetica, Arial, sans-serif" font-size="17" font-weight="700" letter-spacing="3" fill="#A3A5AB">VOLTARIS</text>
</svg>
