<svg xmlns="http://www.w3.org/2000/svg" viewBox="0 0 1000 750" width="1000" height="750" role="img" aria-label="STIHL BG 86 — 27,2 cm³ · 810 m³/h · 80 m/s">
  <defs>
    <linearGradient id="bg" x1="0" y1="0" x2="0" y2="1">
      <stop offset="0%" stop-color="#FFFFFF"/>
      <stop offset="100%" stop-color="#F1F1F3"/>
    </linearGradient>
    <linearGradient id="rule" x1="0" y1="0" x2="1" y2="0">
      <stop offset="0%" stop-color="#E1000F"/>
      <stop offset="100%" stop-color="#E1000F" stop-opacity="0"/>
    </linearGradient>
  </defs>

  <rect width="1000" height="750" fill="url(#bg)"/>
  <rect x="0" y="0" width="1000" height="6" fill="#E1000F"/>

  <g transform="translate(340 240) scale(1.28)">
    <path d="M34 60 h74 l18 18 -18 18 H34 z" fill="#3B3D42"/>
    <rect x="126" y="70" width="150" height="16" rx="8" fill="#9CA0A7"/>
    <path d="M282 62 q26 16 0 32" fill="none" stroke="#E1000F" stroke-width="6" stroke-linecap="round"/>
    <path d="M290 50 q38 28 0 56" fill="none" stroke="#E1000F" stroke-width="5" stroke-linecap="round" opacity=".5"/>
    <circle cx="62" cy="78" r="9" fill="#E1000F"/>
  </g>

  <rect x="80" y="452" width="420" height="3" fill="url(#rule)"/>

  <text x="80" y="424" font-family="Inter, Roboto, Helvetica, Arial, sans-serif" font-size="22" font-weight="700" letter-spacing="4.5" fill="#E1000F">STIHL</text>
  <text x="80" y="518" font-family="Inter, Roboto, Helvetica, Arial, sans-serif" font-size="56" font-weight="800" letter-spacing="-1" fill="#0B0B0C">BG 86</text>
  <text x="80" y="566" font-family="Inter, Roboto, Helvetica, Arial, sans-serif" font-size="24" font-weight="600" fill="#74777E">27,2 cm³ · 810 m³/h · 80 m/s</text>
  <text x="80" y="612" font-family="Inter, Roboto, Helvetica, Arial, sans-serif" font-size="19" font-weight="500" fill="#A3A5AB">Visuel provisoire — photo produit à venir</text>

  <text x="80" y="690" font-family="Inter, Roboto, Helvetica, Arial, sans-serif" font-size="17" font-weight="700" letter-spacing="3" fill="#A3A5AB">VOLTARIS</text>
</svg>
